<svg width="47" height="43" viewBox="0 0 47 43" fill="none" xmlns="http://www.w3.org/2000/svg">
<path d="M10.9347 29.1902C10.3731 28.9805 10.4136 28.6647 10.4136 28.2772V26.6179H9.91772C9.91772 26.8117 9.90558 27.0045 9.89344 27.1974C9.88231 27.3716 9.62022 27.5905 9.41682 27.6874C8.00921 28.3536 6.56922 28.8455 4.91875 28.6936C3.81372 28.5911 2.68743 28.674 1.57025 28.674L1.37697 28.4765C1.52876 28.2902 1.63805 28.0228 1.83841 27.9399C2.91781 27.4958 4.00126 27.0552 5.08876 26.6179H0.952969C0.952969 27.239 0.952969 27.8601 0.952969 28.4812C0.952969 28.6955 0.681769 28.9069 0.543134 29.1231C0.361997 29.4026 0.0371649 29.6979 0.0543678 29.9681C0.0715707 30.2382 0.437892 30.4879 0.685817 30.7134C0.829512 30.8447 1.04 30.9165 1.22518 31.0059C2.10557 31.4345 2.96976 31.9105 3.89366 32.2543C4.29843 32.4052 4.61821 32.4648 4.82262 32.8897C5.1181 33.5036 6.1776 33.6107 6.45285 33.0313C6.77161 32.3568 7.34234 32.3335 7.92421 32.149C8.50607 31.9646 9.03127 31.6832 9.56759 31.4168C10.029 31.1894 10.4611 30.9127 10.9195 30.6808C11.554 30.3575 11.6188 29.4454 10.9347 29.1902ZM5.77384 32.9689C5.52389 32.9689 5.26787 32.7397 5.01792 32.6092C5.04828 32.5356 5.07864 32.4611 5.10799 32.3875H6.46702C6.15129 32.667 5.96408 32.9661 5.77182 32.9689H5.77384ZM1.58543 30.7441H9.65057C8.43625 32.3661 3.46156 32.612 1.58543 30.7441ZM10.1616 30.3864C8.67304 30.432 7.18145 30.4078 5.68985 30.4078C4.22558 30.4078 2.76029 30.4311 1.29804 30.3873C1.00964 30.3789 0.526943 30.1432 0.488489 29.9504C0.387295 29.4538 0.862906 29.396 1.2859 29.3914C4.24075 29.3914 7.19662 29.3755 10.1505 29.4147C10.4449 29.4147 10.7333 29.7557 11.0238 29.9383C10.7364 30.0976 10.4541 30.378 10.1616 30.3864Z" fill="#CF814C"/>
<path d="M0.780263 9.04915L0.966459 9.02865V15.5296H1.46534C1.46534 14.6548 1.46534 13.8526 1.48154 13.044C1.48154 12.9219 1.67178 12.7524 1.81547 12.6937C4.4627 11.6121 7.11702 10.5435 9.91604 9.41249C9.91604 10.509 9.92818 11.4621 9.90491 12.4217C9.90491 12.5828 9.78651 12.8306 9.6499 12.8875C7.52483 13.766 5.39166 14.6306 3.1735 15.5296H10.4119C10.4119 13.9079 10.4119 12.286 10.4119 10.6637V8.97369L10.6355 9.06685C10.8865 8.71935 11.352 8.35974 11.3307 8.02715C11.3064 7.64611 10.849 7.28837 10.4837 6.78901C11.2832 4.0407 10.6962 2.06657 8.56105 0.748308C6.72742 -0.378035 4.08626 -0.296983 2.42567 0.941156C0.389655 2.46158 -0.130481 4.51024 0.815681 6.86261C0.50198 7.3247 0.0698825 7.68804 0.0597631 8.06069C0.0486318 8.3849 0.522219 8.71935 0.780263 9.04915ZM2.56229 1.3166C4.37669 0.000207785 6.85189 -0.0240146 8.61974 1.25977C9.47503 1.87789 10.0845 2.73888 10.3533 3.70884C10.6222 4.6788 10.5353 5.70336 10.1063 6.62318C9.91604 7.02471 9.66305 7.1598 9.19554 7.15048C7.9974 7.1244 6.79927 7.14117 5.60012 7.14117C4.40098 7.14117 3.20183 7.17377 2.00572 7.11788C1.83936 7.09518 1.68051 7.03889 1.54055 6.95305C1.40059 6.8672 1.28299 6.75392 1.19617 6.62132C0.263163 4.82327 0.872349 2.54729 2.56229 1.3194V1.3166ZM1.29129 7.55854C2.75455 7.51382 4.21984 7.53804 5.68411 7.53804C7.17571 7.53804 8.66731 7.51382 10.1569 7.55854C10.4503 7.56786 10.7337 7.84362 11.0221 7.99641C10.7337 8.18273 10.4483 8.52371 10.1569 8.52837C7.20202 8.5675 4.24615 8.55352 1.29028 8.55166C0.869313 8.55166 0.391679 8.49483 0.487813 7.99827C0.524243 7.80542 1.00592 7.56506 1.29129 7.55668V7.55854Z" fill="#CF814C"/>
<path d="M5.60355 7.14118C4.40542 7.14118 3.20526 7.17379 2.00915 7.11789C1.84279 7.0952 1.68394 7.03891 1.54398 6.95306C1.40402 6.86722 1.28642 6.75393 1.1996 6.62133C0.262544 4.82328 0.871731 2.54731 2.56167 1.31942C4.37607 0.000224335 6.85127 -0.0239981 8.61913 1.25979C9.47441 1.8779 10.0839 2.73889 10.3527 3.70885C10.6215 4.67881 10.5347 5.70338 10.1057 6.6232C9.91542 7.02473 9.66243 7.15982 9.19492 7.1505C8.00083 7.12907 6.8027 7.14118 5.60355 7.14118ZM5.1077 1.00918C2.50601 1.70791 0.993163 4.42734 2.05367 6.14434L3.95915 5.07948C3.46432 3.6103 3.74462 2.19142 5.1077 1.00918Z" fill="white"/>
<path d="M3.17502 15.5297C5.39319 14.6307 7.52635 13.7661 9.65142 12.8876C9.78803 12.8308 9.90238 12.5829 9.90643 12.4218C9.9297 11.4659 9.91756 10.5091 9.91756 9.4126C7.11854 10.5436 4.46423 11.6122 1.82206 12.6938C1.67836 12.7525 1.49115 12.9221 1.48812 13.0441C1.46484 13.8481 1.46484 14.6549 1.46484 15.5297H3.17502Z" fill="white"/>
<path d="M5.08874 26.6179C4.00394 27.0558 2.9205 27.4964 1.8384 27.9399C1.63601 28.0228 1.52874 28.293 1.37695 28.4765L1.56619 28.674C2.67932 28.674 3.80965 28.5911 4.91469 28.6936C6.56516 28.8455 8.00515 28.3536 9.41275 27.6874C9.61514 27.5943 9.87824 27.3716 9.88937 27.1974C9.90152 27.0045 9.9086 26.8117 9.91366 26.6179H5.08874Z" fill="white"/>
<path d="M5.68339 7.53609C7.17498 7.53609 8.66658 7.51187 10.1562 7.55659C10.4496 7.5659 10.733 7.84167 11.0214 7.99445C10.733 8.18078 10.4476 8.52176 10.1562 8.52642C7.20129 8.56554 4.24543 8.55157 1.28956 8.54971C0.868589 8.54971 0.390955 8.49288 0.487089 7.99632C0.523518 7.80999 1.0052 7.56497 1.29057 7.55659C2.75383 7.51187 4.21911 7.53609 5.68339 7.53609Z" fill="white"/>
<path d="M5.68974 30.4078C4.22547 30.4078 2.76018 30.4311 1.29793 30.3873C1.00953 30.3789 0.526837 30.1432 0.488383 29.9503C0.387189 29.4538 0.8628 29.396 1.28579 29.3914C4.24065 29.3914 7.19652 29.3755 10.1504 29.4146C10.4448 29.4146 10.7332 29.7556 11.0237 29.9382C10.7373 30.0938 10.455 30.3742 10.1625 30.3826C8.67293 30.432 7.18134 30.4078 5.68974 30.4078Z" fill="white"/>
<path d="M1.58594 30.7441H9.65108C8.43676 32.3661 3.46207 32.6121 1.58594 30.7441Z" fill="white"/>
<path d="M6.46674 32.3875C6.15102 32.6669 5.96077 32.966 5.77154 32.9688C5.52159 32.9688 5.26557 32.7396 5.01562 32.6092C5.04598 32.5356 5.07634 32.4611 5.10569 32.3875H6.46674Z" fill="white"/>
<path d="M5.10803 1.00928C3.74495 2.19152 3.46465 3.61039 3.95949 5.07958L2.05401 6.14443C0.993496 4.42744 2.50634 1.708 5.10803 1.00928Z" fill="#CF814C"/>
<path d="M23.869 9.04917L24.0552 9.02867V15.5296H24.5561C24.5561 14.6548 24.5511 13.8527 24.5723 13.044C24.5723 12.922 24.7626 12.7524 24.9063 12.6937C27.5535 11.6121 30.2078 10.5435 33.0018 9.4125C33.0018 10.509 33.0139 11.4621 32.9906 12.4217C32.9906 12.5828 32.8722 12.8307 32.7356 12.8875C30.6106 13.766 28.4774 14.6306 26.2592 15.5296H33.5027C33.5027 13.9079 33.5027 12.286 33.5027 10.6637V8.9737L33.7263 9.06687C33.9773 8.71937 34.4428 8.35976 34.4215 8.02716C34.3972 7.64613 33.9398 7.28838 33.5745 6.78903C34.374 4.04071 33.787 2.06658 31.6519 0.748323C29.8172 -0.382678 27.1771 -0.301626 25.5165 0.93465C23.4784 2.46159 22.9583 4.51025 23.9045 6.86262C23.5908 7.32844 23.1587 7.68805 23.1485 8.0607C23.1404 8.38491 23.611 8.71937 23.869 9.04917ZM25.6511 1.31662C27.4655 0.000222825 29.9407 -0.0239995 31.7085 1.25979C32.564 1.87796 33.1736 2.73911 33.4425 3.70927C33.7113 4.67943 33.6243 5.70419 33.1951 6.62413C33.0048 7.02566 32.7518 7.16075 32.2843 7.15143C31.0862 7.12534 29.888 7.14211 28.6889 7.14211C27.4898 7.14211 26.2906 7.17472 25.0945 7.11882C24.9281 7.09613 24.7693 7.03984 24.6293 6.95399C24.4894 6.86815 24.3718 6.75486 24.2849 6.62226C23.3519 4.82328 23.9611 2.54731 25.6501 1.31941L25.6511 1.31662ZM24.3801 7.55855C25.8433 7.51384 27.3086 7.53806 28.7729 7.53806C30.2645 7.53806 31.7561 7.51384 33.2457 7.55855C33.5391 7.56787 33.8225 7.84363 34.1109 7.99642C33.8225 8.18275 33.5371 8.52372 33.2457 8.52838C30.2908 8.56751 27.3349 8.55354 24.3791 8.55167C23.9581 8.55167 23.4805 8.49484 23.5766 7.99828C23.613 7.80544 24.0947 7.56507 24.3801 7.55669V7.55855Z" fill="#CF814C"/>
<path d="M34.0238 29.1902C33.4621 28.9805 33.5026 28.6647 33.5026 28.2772V26.6179H33.0068C33.0017 26.8117 32.9946 27.0045 32.9825 27.1974C32.9714 27.3716 32.7093 27.5905 32.5059 27.6874C31.0983 28.3536 29.6583 28.8455 28.0078 28.6936C26.9028 28.5911 25.7765 28.674 24.6593 28.674L24.466 28.4765C24.6178 28.2902 24.7271 28.0228 24.9275 27.9399C26.0069 27.4958 27.0903 27.0552 28.1778 26.6179H24.042C24.042 27.239 24.0403 27.8601 24.037 28.4812C24.037 28.6955 23.7658 28.9069 23.6271 29.1231C23.446 29.4026 23.1211 29.6979 23.1384 29.9681C23.1556 30.2382 23.5219 30.4879 23.7698 30.7134C23.9135 30.8447 24.124 30.9165 24.3092 31.0059C25.1946 31.4307 26.0588 31.904 26.9797 32.2506C27.3844 32.4015 27.7032 32.4611 27.9076 32.8859C28.2031 33.4999 29.2626 33.607 29.5378 33.0275C29.8566 32.353 30.4273 32.3298 31.0092 32.1453C31.5911 31.9608 32.1163 31.6795 32.6526 31.413C33.114 31.1857 33.5461 30.909 34.0045 30.677C34.6431 30.3575 34.7078 29.4454 34.0238 29.1902ZM28.8629 32.9689C28.6129 32.9689 28.3569 32.7397 28.107 32.6092C28.1373 32.5356 28.1677 32.4611 28.197 32.3875H29.5561C29.2403 32.667 29.0531 32.9661 28.8609 32.9689H28.8629ZM24.6765 30.7441H32.7416C31.5253 32.3661 26.5506 32.612 24.6745 30.7441H24.6765ZM33.2527 30.3864C31.7641 30.432 30.2725 30.4078 28.7809 30.4078C27.3166 30.4078 25.8463 30.4311 24.3891 30.3873C24.1007 30.3789 23.618 30.1432 23.5796 29.9504C23.4784 29.4538 23.954 29.396 24.377 29.3914C27.3318 29.3914 30.2877 29.3755 33.2415 29.4147C33.536 29.4147 33.8244 29.7557 34.1148 29.9383C33.8254 30.0976 33.5431 30.378 33.2506 30.3864H33.2527Z" fill="#CF814C"/>
<path d="M28.6933 7.14118C27.4951 7.14118 26.295 7.17379 25.0989 7.11789C24.9325 7.0952 24.7737 7.03891 24.6337 6.95306C24.4937 6.86722 24.3761 6.75393 24.2893 6.62133C23.3553 4.82328 23.9645 2.54731 25.6544 1.31942C27.4658 0.000224335 29.941 -0.0239981 31.7088 1.25979C32.5644 1.87796 33.174 2.73911 33.4428 3.70927C33.7116 4.67943 33.6247 5.70419 33.1954 6.62413C33.0051 7.02566 32.7522 7.16075 32.2846 7.15143C31.0906 7.12907 29.8924 7.14118 28.6933 7.14118ZM28.1974 1.00918C25.5957 1.70791 24.0829 4.42734 25.1444 6.14434L27.0489 5.07948C26.554 3.6103 26.8343 2.19142 28.1974 1.00918Z" fill="white"/>
<path d="M26.2651 15.5297C28.4832 14.6307 30.6164 13.7661 32.7415 12.8876C32.8781 12.8308 32.9924 12.5829 32.9965 12.4218C33.0197 11.4659 33.0076 10.5091 33.0076 9.4126C30.2086 10.5436 27.5543 11.6122 24.9121 12.6938C24.7684 12.7525 24.5812 12.9221 24.5782 13.0441C24.5569 13.8481 24.5599 14.6549 24.562 15.5297H26.2651Z" fill="white"/>
<path d="M28.1805 26.6179C27.0957 27.0558 26.0123 27.4964 24.9302 27.9399C24.7278 28.0228 24.6205 28.293 24.4688 28.4765L24.662 28.674C25.7752 28.674 26.9055 28.5911 28.0105 28.6936C29.661 28.8455 31.101 28.3536 32.5086 27.6874C32.711 27.5943 32.9741 27.3716 32.9852 27.1974C32.9974 27.0045 33.0044 26.8117 33.0095 26.6179H28.1805Z" fill="white"/>
<path d="M28.7732 7.53609C30.2648 7.53609 31.7564 7.51187 33.246 7.55659C33.5395 7.5659 33.8228 7.84167 34.1112 7.99445C33.8228 8.18078 33.5374 8.52176 33.246 8.52642C30.2911 8.56554 27.3353 8.55157 24.3794 8.54971C23.9584 8.54971 23.4808 8.49288 23.5769 7.99632C23.6134 7.80999 24.095 7.56497 24.3804 7.55659C25.8437 7.51187 27.309 7.53609 28.7732 7.53609Z" fill="white"/>
<path d="M28.7796 30.4078C27.3153 30.4078 25.845 30.4311 24.3878 30.3873C24.0994 30.3789 23.6167 30.1432 23.5782 29.9503C23.477 29.4538 23.9526 29.396 24.3756 29.3914C27.3305 29.3914 30.2864 29.3755 33.2402 29.4146C33.5347 29.4146 33.8231 29.7556 34.1135 29.9382C33.8271 30.0938 33.5448 30.3742 33.2524 30.3826C31.7628 30.432 30.2712 30.4078 28.7796 30.4078Z" fill="white"/>
<path d="M24.6748 30.7441H32.7399C31.5256 32.3661 26.5509 32.6121 24.6748 30.7441Z" fill="white"/>
<path d="M29.5566 32.3875C29.2409 32.6669 29.0506 32.966 28.8614 32.9688C28.6114 32.9688 28.3554 32.7396 28.1055 32.6092C28.1358 32.5356 28.1662 32.4611 28.1955 32.3875H29.5566Z" fill="white"/>
<path d="M28.1974 1.00928C26.8343 2.19152 26.554 3.61039 27.0488 5.07958L25.1444 6.14443C24.0829 4.42744 25.5957 1.708 28.1974 1.00928Z" fill="#CF814C"/>
<path d="M35.1692 13.712C35.7299 13.9216 35.6904 14.2374 35.6894 14.6241V15.5296H36.2895C36.3946 15.3984 36.5305 15.2908 36.6871 15.2147C38.0948 14.5486 39.5347 14.0558 41.1842 14.2086C42.2902 14.3101 43.4165 14.2281 44.5337 14.2281L44.727 14.4256C44.5752 14.612 44.4659 14.8793 44.2655 14.9613L42.8751 15.5296H45.153C45.153 15.157 45.153 14.7843 45.153 14.4182C45.153 14.2039 45.4242 13.9915 45.5639 13.7763C45.744 13.4968 46.0698 13.2005 46.0526 12.9313C46.0354 12.6621 45.6691 12.4114 45.4212 12.186C45.2775 12.0546 45.067 11.9829 44.8808 11.8944C43.9954 11.4696 43.1322 10.9963 42.2113 10.6497C41.8065 10.4988 41.4878 10.4392 41.2824 10.0134C40.9869 9.40041 39.9274 9.29235 39.6531 9.87275C39.3344 10.5473 38.7636 10.5696 38.1818 10.755C37.5999 10.9404 37.0737 11.2208 36.5374 11.4863C36.077 11.7137 35.6449 11.9904 35.1864 12.2233C34.555 12.5447 34.4842 13.4558 35.1692 13.712ZM40.3301 9.93238C40.5791 9.93238 40.8361 10.1616 41.085 10.2929C41.0557 10.3665 41.0253 10.4401 40.995 10.5137H39.6369C39.9517 10.2352 40.1399 9.9361 40.3321 9.93238H40.3301ZM44.5175 12.1599H36.4534C37.6677 10.5351 42.6424 10.2901 44.5175 12.1599ZM35.9414 12.5167C37.4309 12.4711 38.9225 12.4962 40.4131 12.4962C41.8774 12.4962 43.3427 12.472 44.8059 12.5167C45.0933 12.5251 45.577 12.7608 45.6155 12.9527C45.7167 13.4502 45.24 13.5117 44.8181 13.5117C41.8622 13.5117 38.9073 13.5285 35.9525 13.4884C35.659 13.4884 35.3706 13.1474 35.0792 12.9648C35.3645 12.8046 35.6499 12.5242 35.9414 12.5149V12.5167Z" fill="#CF814C"/>
<path d="M45.3237 33.853L45.1385 33.8725C45.1385 31.4546 45.1385 29.0364 45.1385 26.6179H35.6901V33.9275L35.4664 33.8343C35.2155 34.1818 34.749 34.5415 34.7702 34.874C34.7955 35.256 35.2529 35.6138 35.6172 36.1131C34.8188 38.8605 35.4057 40.8346 37.5399 42.1529C39.3756 43.2848 42.0157 43.2038 43.6753 41.9666C45.7123 40.4471 46.2314 38.3984 45.2863 36.0451C45.599 35.5793 46.0321 35.2197 46.0412 34.847C46.0533 34.5191 45.5858 34.1828 45.3237 33.853ZM36.1981 30.4795C36.1981 30.3184 36.3155 30.0705 36.4521 30.0137C39.1175 28.9125 41.7931 27.8328 44.6366 26.6803C44.6366 27.8328 44.6478 28.8455 44.6214 29.8581C44.6214 29.9792 44.4312 30.1488 44.2865 30.2084C41.6393 31.2901 38.986 32.3586 36.1859 33.4887C36.1859 32.3931 36.1748 31.4363 36.1981 30.4795ZM43.5417 41.5827C41.7283 42.901 39.2531 42.9261 37.4853 41.6433C36.6295 41.0251 36.0197 40.1638 35.7506 39.1935C35.4816 38.2232 35.5685 37.1982 35.9977 36.278C36.189 35.8774 36.442 35.7414 36.9085 35.7516C38.1066 35.7768 39.3057 35.76 40.5039 35.76C41.702 35.76 42.9032 35.7284 44.0983 35.7833C44.3847 35.7973 44.7874 36.0423 44.9078 36.2808C45.8418 38.0779 45.2327 40.3539 43.5417 41.5827ZM44.8127 35.3454C43.3505 35.3892 41.8852 35.3659 40.4199 35.3659C38.9293 35.3659 37.4367 35.3902 35.9481 35.3445C35.6547 35.3361 35.3703 35.0594 35.0819 34.9067C35.3703 34.7203 35.6567 34.3793 35.9471 34.3756C38.903 34.3356 41.8578 34.3505 44.8137 34.3523C45.2357 34.3523 45.7123 34.4092 45.6172 34.9057C45.5798 35.0967 45.0991 35.3361 44.8127 35.3454Z" fill="#CF814C"/>
<path d="M40.4992 35.7601C41.6984 35.7601 42.8985 35.7284 44.0936 35.7833C44.38 35.7973 44.7828 36.0423 44.9032 36.2808C45.8382 38.078 45.229 40.3539 43.5381 41.5828C41.7247 42.901 39.2495 42.9262 37.4816 41.6433C36.6259 41.0251 36.016 40.1639 35.747 39.1935C35.478 38.2232 35.5648 37.1982 35.9941 36.278C36.1854 35.8774 36.4383 35.7414 36.9048 35.7517C38.102 35.7768 39.3011 35.7601 40.4992 35.7601ZM40.9951 41.8921C43.5978 41.1943 45.1106 38.472 44.0501 36.7578L42.1447 37.8208C42.6395 39.2909 42.3582 40.708 40.9951 41.8921Z" fill="white"/>
<path d="M36.1853 33.4888C36.1853 32.3932 36.1741 31.4392 36.1974 30.4796C36.1974 30.3184 36.3148 30.0706 36.4514 30.0138C39.1169 28.9126 41.7924 27.8328 44.636 26.6804C44.636 27.8328 44.6471 28.8455 44.6208 29.8582C44.6208 29.9793 44.4305 30.1489 44.2858 30.2085C41.6386 31.2901 38.9853 32.3587 36.1853 33.4888Z" fill="white"/>
<path d="M42.8757 15.5297L44.2661 14.9614C44.4685 14.8794 44.5758 14.6083 44.7276 14.4257L44.5343 14.2282C43.4212 14.2282 42.2908 14.3102 41.1848 14.2086C39.5353 14.0558 38.0953 14.5487 36.6877 15.2148C36.5311 15.2908 36.3952 15.3985 36.29 15.5297H42.8757Z" fill="white"/>
<path d="M40.4249 35.366C38.9343 35.366 37.4417 35.3902 35.9531 35.3446C35.6597 35.3362 35.3753 35.0595 35.0869 34.9067C35.3753 34.7204 35.6617 34.3794 35.9521 34.3757C38.908 34.3356 41.8629 34.3505 44.8187 34.3524C45.2407 34.3524 45.7173 34.4092 45.6222 34.9058C45.5848 35.0968 45.1041 35.3362 44.8177 35.3455C43.3504 35.3893 41.8841 35.366 40.4249 35.366Z" fill="white"/>
<path d="M40.414 12.4943C41.8783 12.4943 43.3436 12.4701 44.8068 12.5148C45.0942 12.5232 45.5779 12.7589 45.6164 12.9508C45.7176 13.4483 45.2409 13.5098 44.819 13.5098C41.8631 13.5098 38.9082 13.5266 35.9534 13.4865C35.6599 13.4865 35.3715 13.1456 35.0801 12.963C35.3675 12.8083 35.6498 12.5279 35.9412 12.5186C37.4318 12.4692 38.9234 12.4943 40.414 12.4943Z" fill="white"/>
<path d="M44.5182 12.16H36.4541C37.6684 10.5352 42.6431 10.2902 44.5182 12.16Z" fill="white"/>
<path d="M39.6377 10.5137C39.9524 10.2342 40.1437 9.9361 40.3329 9.93237C40.5818 9.93237 40.8389 10.1616 41.0878 10.2929C41.0585 10.3665 41.0281 10.4401 40.9977 10.5137H39.6377Z" fill="white"/>
<path d="M40.9951 41.8919C42.3582 40.7078 42.6395 39.2908 42.1447 37.8207L44.0502 36.7549C45.1107 38.4719 43.5978 41.1941 40.9951 41.8919Z" fill="#CF814C"/>
<path d="M22.234 33.853L22.0488 33.8725C22.0488 31.4546 22.0488 29.0364 22.0488 26.6179H12.5963V33.9275L12.3727 33.8343C12.1217 34.1818 11.6552 34.5415 11.6765 34.874C11.7018 35.256 12.1592 35.6138 12.5235 36.1131C11.7251 38.8605 12.312 40.8346 14.4462 42.1529C16.2808 43.2848 18.9209 43.2038 20.5805 41.9666C22.6176 40.4471 23.1367 38.3984 22.1915 36.0451C22.5042 35.5793 22.9373 35.2197 22.9464 34.847C22.9636 34.5191 22.4931 34.1828 22.234 33.853ZM13.1084 30.4795C13.1084 30.3184 13.2258 30.0705 13.3624 30.0137C16.0278 28.9125 18.7034 27.8328 21.5469 26.6803C21.5469 27.8328 21.5581 28.8455 21.5317 29.8581C21.5317 29.9792 21.3415 30.1488 21.1968 30.2084C18.5496 31.2901 15.8963 32.3586 13.0962 33.4887C13.0962 32.3931 13.0851 31.4363 13.1084 30.4795ZM20.452 41.5827C18.6386 42.901 16.1634 42.9261 14.3956 41.6433C13.5398 41.0251 12.93 40.1638 12.6609 39.1935C12.3919 38.2232 12.4788 37.1982 12.908 36.278C13.0993 35.8774 13.3523 35.7414 13.8188 35.7516C15.0169 35.7768 16.216 35.76 17.4142 35.76C18.6123 35.76 19.8135 35.7284 21.0086 35.7833C21.295 35.7973 21.6977 36.0423 21.8181 36.2808C22.7521 38.0779 22.143 40.3539 20.452 41.5827ZM21.723 35.3454C20.2608 35.3892 18.7945 35.3659 17.3302 35.3659C15.8396 35.3659 14.347 35.3902 12.8584 35.3445C12.565 35.3361 12.2806 35.0594 11.9922 34.9067C12.2806 34.7203 12.567 34.3793 12.8574 34.3756C15.8133 34.3356 18.7681 34.3505 21.724 34.3523C22.146 34.3523 22.6226 34.4092 22.5275 34.9057C22.49 35.0967 22.0074 35.3361 21.723 35.3454Z" fill="#CF814C"/>
<path d="M12.0799 13.712C12.6405 13.9216 12.6011 14.2374 12.6011 14.6241C12.6011 14.9259 12.6011 15.2278 12.6011 15.5296H13.2032C13.3083 15.3984 13.4442 15.2908 13.6009 15.2147C15.0085 14.5486 16.4484 14.0558 18.0979 14.2086C19.204 14.3101 20.3302 14.2281 21.4474 14.2281L21.6407 14.4256C21.4889 14.612 21.3796 14.8793 21.1793 14.9613L19.7889 15.5296H22.0667C22.0667 15.157 22.0667 14.7843 22.0667 14.4182C22.0667 14.2039 22.3379 13.9915 22.4776 13.7763C22.6577 13.4968 22.9835 13.2005 22.9663 12.9313C22.9491 12.6621 22.5828 12.4114 22.3349 12.186C22.1912 12.0546 21.9807 11.9829 21.7945 11.8944C20.9091 11.4696 20.0449 10.9963 19.125 10.6497C18.7202 10.4988 18.4015 10.4392 18.1961 10.0134C17.9006 9.40041 16.8411 9.29235 16.5668 9.87275C16.2481 10.5473 15.6774 10.5696 15.0955 10.755C14.5136 10.9404 13.9874 11.2208 13.4511 11.4863C12.9907 11.7137 12.5586 11.9904 12.1002 12.2233C11.4606 12.5447 11.3948 13.4558 12.0799 13.712ZM17.2408 9.93238C17.4897 9.93238 17.7468 10.1616 17.9957 10.2929C17.9664 10.3665 17.936 10.4401 17.9056 10.5137H16.5476C16.8623 10.2352 17.0485 9.9361 17.2428 9.93238H17.2408ZM21.4282 12.1599H13.3641C14.5784 10.5351 19.5531 10.2901 21.4282 12.1599ZM12.852 12.5167C14.3416 12.4711 15.8332 12.4962 17.3238 12.4962C18.788 12.4962 20.2533 12.472 21.7166 12.5167C22.004 12.5251 22.4877 12.7608 22.5261 12.9527C22.6273 13.4502 22.1507 13.5117 21.7287 13.5117C18.7729 13.5117 15.818 13.5285 12.8632 13.4884C12.5697 13.4884 12.2813 13.1474 11.9898 12.9648C12.2783 12.8046 12.5606 12.5242 12.852 12.5149V12.5167Z" fill="#CF814C"/>
<path d="M17.4104 35.7601C18.6095 35.7601 19.8097 35.7284 21.0048 35.7833C21.2912 35.7973 21.6939 36.0423 21.8143 36.2808C22.7494 38.078 22.1402 40.3539 20.4492 41.5828C18.6358 42.901 16.1606 42.9262 14.3928 41.6433C13.537 41.0251 12.9272 40.1639 12.6581 39.1935C12.3891 38.2232 12.476 37.1982 12.9052 36.278C13.0965 35.8774 13.3495 35.7414 13.816 35.7517C15.0131 35.7768 16.2122 35.7601 17.4104 35.7601ZM17.9062 41.8921C20.5089 41.1943 22.0218 38.472 20.9613 36.7578L19.0558 37.8208C19.5506 39.2909 19.2693 40.708 17.9062 41.8921Z" fill="white"/>
<path d="M13.0964 33.4888C13.0964 32.3932 13.0853 31.4392 13.1086 30.4796C13.1086 30.3184 13.2259 30.0706 13.3626 30.0138C16.028 28.9126 18.7036 27.8328 21.5471 26.6804C21.5471 27.8328 21.5582 28.8455 21.5319 29.8582C21.5319 29.9793 21.3417 30.1489 21.197 30.2085C18.5497 31.2901 15.8964 32.3587 13.0964 33.4888Z" fill="white"/>
<path d="M19.7859 15.5297L21.1763 14.9614C21.3787 14.8794 21.4859 14.6083 21.6377 14.4257L21.4445 14.2282C20.3313 14.2282 19.201 14.3102 18.0949 14.2086C16.4455 14.0558 15.0055 14.5487 13.5979 15.2148C13.4413 15.2908 13.3053 15.3985 13.2002 15.5297H19.7859Z" fill="white"/>
<path d="M17.3302 35.366C15.8396 35.366 14.347 35.3902 12.8584 35.3446C12.5649 35.3362 12.2806 35.0595 11.9922 34.9067C12.2806 34.7204 12.567 34.3794 12.8574 34.3757C15.8133 34.3356 18.7681 34.3505 21.724 34.3524C22.146 34.3524 22.6226 34.4092 22.5275 34.9058C22.49 35.0968 22.0094 35.3362 21.723 35.3455C20.2607 35.3893 18.7944 35.366 17.3302 35.366Z" fill="white"/>
<path d="M17.3242 12.4943C18.7884 12.4943 20.2537 12.4701 21.717 12.5148C22.0044 12.5232 22.4881 12.7589 22.5265 12.9508C22.6277 13.4483 22.1511 13.5098 21.7291 13.5098C18.7733 13.5098 15.8184 13.5266 12.8635 13.4865C12.5701 13.4865 12.2817 13.1456 11.9902 12.963C12.2776 12.8083 12.56 12.5279 12.8514 12.5186C14.342 12.4692 15.8346 12.4943 17.3242 12.4943Z" fill="white"/>
<path d="M21.4284 12.16H13.3643C14.5786 10.5352 19.5533 10.2902 21.4284 12.16Z" fill="white"/>
<path d="M16.5479 10.5137C16.8626 10.2342 17.0538 9.9361 17.2431 9.93237C17.492 9.93237 17.749 10.1616 17.998 10.2929C17.9686 10.3665 17.9383 10.4401 17.9079 10.5137H16.5479Z" fill="white"/>
<path d="M17.9062 41.8919C19.2693 40.7078 19.5506 39.2908 19.0558 37.8207L20.9613 36.7549C22.0218 38.4719 20.509 41.1941 17.9062 41.8919Z" fill="#CF814C"/>
<path d="M0.533157 24.4573C0.217433 24.1337 0.0595703 23.671 0.0595703 23.0692V22.6444H1.26276V23.153C1.26276 23.6344 1.48202 23.8754 1.92052 23.876C2.01127 23.8816 2.10226 23.8689 2.18706 23.8386C2.27186 23.8084 2.34842 23.7613 2.41131 23.7008C2.52263 23.5841 2.57828 23.395 2.57828 23.1335C2.58294 22.846 2.50211 22.5628 2.34453 22.3146C2.19071 22.0773 1.90602 21.7922 1.49045 21.4593C0.967616 21.0314 0.602306 20.6454 0.394522 20.3013C0.182769 19.9452 0.0753539 19.5445 0.0828449 19.1386C0.0828449 18.5505 0.244418 18.0952 0.567563 17.7729C0.890708 17.4505 1.35856 17.2897 1.97112 17.2903C2.57828 17.2903 3.03804 17.4511 3.35039 17.7729C3.66274 18.0946 3.81858 18.557 3.81791 19.1601V19.4675H2.6218V19.0855C2.6218 18.8303 2.56715 18.6449 2.45989 18.5266C2.40032 18.4665 2.3268 18.4195 2.24481 18.3892C2.16282 18.3589 2.07446 18.346 1.9863 18.3514C1.56331 18.3514 1.35181 18.5887 1.35181 19.0632C1.35115 19.3303 1.4333 19.5921 1.58861 19.8178C1.74647 20.0513 2.03319 20.3345 2.44876 20.6675C2.97901 21.0923 3.34432 21.4783 3.54468 21.8255C3.75348 22.2034 3.85776 22.6229 3.84826 23.0468C3.84826 23.6561 3.68501 24.1238 3.35849 24.4499C3.03197 24.7759 2.5567 24.9387 1.93267 24.9381C1.31471 24.9387 0.848207 24.7784 0.533157 24.4573Z" fill="white"/>
<path d="M5.51767 17.3965H7.2329L8.54842 24.83H7.2835L7.05278 23.3533V23.3748H5.6138L5.37903 24.83H4.20215L5.51767 17.3965ZM6.902 22.3686L6.33734 18.6924H6.31406L5.75952 22.3686H6.902Z" fill="white"/>
<path d="M9.5392 24.4573C9.21942 24.1387 9.05987 23.689 9.06055 23.1083V19.1172C9.06055 18.5365 9.2201 18.0868 9.5392 17.7682C9.85829 17.4496 10.3218 17.2903 10.9296 17.2903C11.5368 17.2903 12.0002 17.4496 12.32 17.7682C12.6398 18.0868 12.7993 18.5365 12.7986 19.1172V19.9035H11.5985V19.0427C11.5985 18.5825 11.387 18.3523 10.964 18.3523C10.541 18.3523 10.3295 18.5825 10.3295 19.0427V23.1968C10.3295 23.6502 10.541 23.8769 10.964 23.8769C11.387 23.8769 11.5985 23.6502 11.5985 23.1968V22.0602H12.7986V23.1121C12.7986 23.6921 12.6388 24.1418 12.319 24.4611C11.9992 24.7803 11.5357 24.9396 10.9286 24.939C10.3207 24.939 9.85762 24.7784 9.5392 24.4573Z" fill="white"/>
<path d="M13.5605 17.3965H15.4417C16.0955 17.3965 16.5724 17.5362 16.8726 17.8157C17.1728 18.0952 17.3229 18.5256 17.3229 19.107V19.5635C17.3229 20.3355 17.046 20.8243 16.4921 21.0298V21.0503C16.6363 21.0865 16.7697 21.1521 16.8825 21.2423C16.9953 21.3324 17.0846 21.4448 17.1438 21.5711C17.2706 21.8338 17.3341 22.1845 17.3341 22.6229V23.9272C17.3323 24.0992 17.3401 24.2712 17.3573 24.4424C17.3734 24.5764 17.4123 24.7072 17.4727 24.83H16.1805C16.137 24.7198 16.1058 24.6059 16.0874 24.4899C16.0685 24.2992 16.0611 24.1076 16.0651 23.916V22.5596C16.0651 22.2192 16.0054 21.982 15.886 21.8478C15.7666 21.7137 15.5608 21.6463 15.2687 21.6457H14.8295V24.83H13.5605V17.3965ZM15.292 20.5836C15.5463 20.5836 15.7366 20.5234 15.8627 20.4029C15.9902 20.2827 16.0529 20.0805 16.0529 19.7973V19.2234C16.0529 18.9545 16.001 18.7598 15.8971 18.6393C15.8364 18.5761 15.7605 18.5269 15.6755 18.4955C15.5904 18.4641 15.4986 18.4515 15.4073 18.4585H14.8295V20.5836H15.292Z" fill="white"/>
<path d="M18.2119 17.3965H21.6738V18.4585H19.4778V20.4243H21.2204V21.4863H19.4778V23.7707H21.6738V24.83H18.2119V17.3965Z" fill="white"/>
<path d="M24.6447 24.4573C24.3249 24.1387 24.1653 23.689 24.166 23.1083V19.1172C24.166 18.5365 24.3256 18.0868 24.6447 17.7682C24.9638 17.4496 25.4272 17.2903 26.0351 17.2903C26.6422 17.2903 27.1057 17.4496 27.4255 17.7682C27.7452 18.0868 27.9051 18.5365 27.9051 19.1172V19.9035H26.704V19.0427C26.704 18.5825 26.4925 18.3523 26.0695 18.3523C25.6465 18.3523 25.435 18.5825 25.435 19.0427V23.1968C25.435 23.6502 25.6465 23.8769 26.0695 23.8769C26.4925 23.8769 26.704 23.6502 26.704 23.1968V22.0602H27.9051V23.1121C27.9051 23.6921 27.7452 24.1418 27.4255 24.4611C27.1057 24.7803 26.6422 24.9396 26.0351 24.939C25.4266 24.939 24.9631 24.7784 24.6447 24.4573Z" fill="white"/>
<path d="M29.0906 24.4509C28.76 24.1248 28.5947 23.6643 28.5947 23.0693V19.1564C28.5947 18.5614 28.76 18.1009 29.0906 17.7748C29.4211 17.4487 29.8981 17.286 30.5215 17.2866C31.1448 17.2866 31.6218 17.4493 31.9523 17.7748C32.2829 18.1002 32.4482 18.5608 32.4482 19.1564V23.0693C32.4482 23.6649 32.2829 24.1254 31.9523 24.4509C31.6218 24.7763 31.1448 24.939 30.5215 24.939C29.8995 24.939 29.4225 24.7763 29.0906 24.4509ZM31.1792 23.1466V19.0856C31.1792 18.5968 30.96 18.3524 30.5215 18.3524C30.083 18.3524 29.8637 18.5968 29.8637 19.0856V23.1438C29.8637 23.6326 30.083 23.877 30.5215 23.877C30.96 23.877 31.1799 23.6326 31.1812 23.1438L31.1792 23.1466Z" fill="white"/>
<path d="M33.3047 17.3965H36.7665V18.4585H34.5747V20.4243H36.3172V21.4863H34.5747V23.7707H36.7665V24.83H33.3047V17.3965Z" fill="white"/>
<path d="M37.932 24.4575C37.6095 24.1352 37.4479 23.6731 37.4473 23.0713V17.3967H38.7162V23.1532C38.7162 23.4085 38.7729 23.593 38.8842 23.7057C39.0149 23.8159 39.1856 23.8771 39.3629 23.8771C39.5401 23.8771 39.7109 23.8159 39.8415 23.7057C39.9528 23.593 40.0095 23.4085 40.0095 23.1532V17.3958H41.2339V23.0694C41.2339 23.6712 41.0724 24.1333 40.7492 24.4557C40.4261 24.778 39.9569 24.9392 39.3416 24.9392C38.725 24.9392 38.2551 24.7786 37.932 24.4575Z" fill="white"/>
<path d="M42.1328 17.3965H44.014C44.6677 17.3965 45.1447 17.5362 45.4449 17.8157C45.7451 18.0952 45.8949 18.5256 45.8942 19.107V19.5635C45.8942 20.3355 45.6173 20.8243 45.0634 21.0298V21.0503C45.2076 21.0865 45.3412 21.1521 45.4542 21.2423C45.5672 21.3324 45.6567 21.4448 45.7161 21.5711C45.8429 21.8338 45.9063 22.1845 45.9063 22.6229V23.9272C45.904 24.0992 45.9118 24.2712 45.9296 24.4424C45.9457 24.5764 45.9846 24.7072 46.045 24.83H44.7517C44.7086 24.7198 44.6777 24.6059 44.6596 24.4899C44.6403 24.2992 44.6325 24.1076 44.6363 23.916V22.5596C44.6363 22.2192 44.577 21.982 44.4582 21.8478C44.3388 21.7127 44.1324 21.6457 43.841 21.6457H43.4018V24.83H42.1328V17.3965ZM43.8652 20.5836C43.9689 20.5908 44.073 20.5785 44.1713 20.5474C44.2696 20.5164 44.36 20.4672 44.437 20.4029C44.5638 20.283 44.6272 20.0811 44.6272 19.7973V19.2234C44.6272 18.9545 44.5753 18.7598 44.4714 18.6393C44.4105 18.5761 44.3344 18.5269 44.2492 18.4955C44.164 18.4641 44.0721 18.4515 43.9806 18.4585H43.4038V20.5836H43.8652Z" fill="white"/>
<path d="M20.7266 16.9532L18.2119 19.0708L19.9575 16.8992L20.7266 16.9532Z" fill="white"/>
</svg>
