<svg xmlns="http://www.w3.org/2000/svg" viewBox="0 0 666.04 226.79"><defs><style>.cls-1{fill:#cf814c;}.cls-2{fill:#fff;}</style></defs><g id="Layer_2" data-name="Layer 2"><g id="Layer_1-2" data-name="Layer 1"><path class="cls-1" d="M93.46,166.88q-5-5.58-5-16V146h12.76v5.9q0,8.34,7,8.34a6.56,6.56,0,0,0,5.21-2q1.78-2,1.78-6.57a18.25,18.25,0,0,0-2.45-9.51q-2.46-4.11-9.08-9.88Q95.29,124.85,92,118.89a27.11,27.11,0,0,1-3.32-13.44q0-10.19,5.16-15.77t15-5.58q9.69,0,14.67,5.58t5,16v3.56H115.67v-4.42q0-4.41-1.72-6.44a6.22,6.22,0,0,0-5-2q-6.75,0-6.75,8.22a16.19,16.19,0,0,0,2.52,8.72q2.5,4.05,9.14,9.82,8.48,7.37,11.66,13.37a29.69,29.69,0,0,1,3.19,14.12q0,10.56-5.21,16.2t-15.16,5.64Q98.49,172.46,93.46,166.88Z"/><path class="cls-1" d="M146.48,85.33h18.28l14,85.91h-13.5l-2.46-17.06v.24H147.46L145,171.24H132.49Zm14.73,57.43-6-42.46H155l-5.9,42.46Z"/><path class="cls-1" d="M189.25,166.94q-5.1-5.52-5.1-15.59V105.21q0-10.06,5.1-15.59T204,84.1q9.69,0,14.79,5.52t5.09,15.59v9.08H211.15v-9.94q0-8-6.75-8t-6.75,8v48q0,7.84,6.75,7.85t6.75-7.85V139.2h12.77v12.15q0,10.07-5.09,15.59T204,172.46Q194.33,172.46,189.25,166.94Z"/><path class="cls-1" d="M232,85.33h20q10.44,0,15.22,4.84T272,105.09v5.27q0,13.38-8.84,16.94v.25a10.54,10.54,0,0,1,6.94,6q2,4.55,2,12.15V160.8a56,56,0,0,0,.25,6,15,15,0,0,0,1.22,4.48H259.88a19.44,19.44,0,0,1-1-3.93,57.32,57.32,0,0,1-.25-6.63V145q0-5.88-1.9-8.22t-6.57-2.33h-4.66v36.82H232Zm18.41,36.82q4,0,6.07-2.09t2-7v-6.62q0-4.66-1.66-6.75t-5.21-2.09h-6.14v24.55Z"/><path class="cls-1" d="M281.48,85.33H318.3V97.6H295v22.7h18.53v12.28H295V159H318.3v12.28H281.48Zm19.64-19.89h14.72L302.71,79.56H292.52Z"/><path class="cls-1" d="M349.9,166.94q-5.1-5.52-5.1-15.59V105.21q0-10.06,5.1-15.59t14.79-5.52q9.69,0,14.78,5.52t5.1,15.59v9.08H371.8v-9.94q0-8-6.75-8t-6.75,8v48q0,7.84,6.75,7.85t6.75-7.85V139.2h12.77v12.15q0,10.07-5.1,15.59t-14.78,5.52Q355,172.46,349.9,166.94Z"/><path class="cls-1" d="M397.21,166.82q-5.28-5.64-5.28-16V105.7q0-10.31,5.28-16t15.22-5.64q9.93,0,15.22,5.64t5.27,16v45.16q0,10.32-5.27,16t-15.22,5.64Q402.49,172.46,397.21,166.82Zm22.21-15.1V104.84q0-8.46-7-8.47t-7,8.47v46.88q0,8.47,7,8.47T419.42,151.72Z"/><path class="cls-1" d="M442,85.33h36.82V97.6H455.5v22.7H474v12.28H455.5V159h23.32v12.28H442Z"/><path class="cls-1" d="M491.22,166.88q-5.16-5.58-5.16-16V85.33h13.5v66.52c0,2.94.6,5.07,1.78,6.38a7.6,7.6,0,0,0,10.19,0c1.18-1.31,1.78-3.44,1.78-6.38V85.33h13v65.53q0,10.44-5.16,16t-15,5.58Q496.37,172.46,491.22,166.88Z"/><path class="cls-1" d="M535.89,85.33h20q10.44,0,15.22,4.84t4.79,14.92v5.27q0,13.38-8.84,16.94v.25a10.54,10.54,0,0,1,6.94,6q2,4.55,2,12.15V160.8a56,56,0,0,0,.25,6,15,15,0,0,0,1.22,4.48H563.75a19.44,19.44,0,0,1-1-3.93,57.32,57.32,0,0,1-.25-6.63V145q0-5.88-1.9-8.22t-6.57-2.33h-4.66v36.82h-13.5Zm18.41,36.82q4.05,0,6.07-2.09t2-7v-6.62q0-4.66-1.66-6.75t-5.21-2.09h-6.14v24.55Z"/><path class="cls-2" d="M135.15,208a5.35,5.35,0,0,0,.35,2.06,3.09,3.09,0,0,0,1.18,1.44,6.07,6.07,0,0,0,2.28.86,20.32,20.32,0,0,0,3.64.28,30.73,30.73,0,0,0,3.46-.19c1.15-.12,2.24-.27,3.29-.45s2-.35,2.81-.51l.65,2.9c-1,.23-2.05.44-3.2.63s-2.33.34-3.54.45-2.41.16-3.58.16a22.15,22.15,0,0,1-5-.48,9,9,0,0,1-3.35-1.43,5.69,5.69,0,0,1-1.89-2.38,8.44,8.44,0,0,1-.61-3.34,8.28,8.28,0,0,1,.61-3.31,5.81,5.81,0,0,1,1.89-2.4,9,9,0,0,1,3.35-1.44,22.21,22.21,0,0,1,5-.47c1.17,0,2.37,0,3.58.16s2.39.25,3.54.44,2.21.41,3.2.65l-.65,2.88c-.83-.17-1.76-.34-2.81-.52s-2.14-.32-3.29-.44a33.28,33.28,0,0,0-3.46-.19,19.33,19.33,0,0,0-3.64.29,5.91,5.91,0,0,0-2.28.85,3.2,3.2,0,0,0-1.18,1.44A5.39,5.39,0,0,0,135.15,208Z"/><path class="cls-2" d="M165.87,215.61a23.38,23.38,0,0,1-6.73-.81,7.26,7.26,0,0,1-3.88-2.52,8.12,8.12,0,0,1,0-8.69,7.3,7.3,0,0,1,3.88-2.51,28.41,28.41,0,0,1,13.47,0,7.34,7.34,0,0,1,3.88,2.51,8.18,8.18,0,0,1,0,8.69,7.3,7.3,0,0,1-3.88,2.52A23.31,23.31,0,0,1,165.87,215.61Zm0-3a24.65,24.65,0,0,0,4-.27,7.46,7.46,0,0,0,2.56-.84,3.23,3.23,0,0,0,1.39-1.45,5.59,5.59,0,0,0,0-4.25,3.41,3.41,0,0,0-1.39-1.46,7.26,7.26,0,0,0-2.56-.83,26,26,0,0,0-4-.26,20.58,20.58,0,0,0-5,.48,4.62,4.62,0,0,0-2.63,1.5,5.06,5.06,0,0,0,0,5.4,4.62,4.62,0,0,0,2.63,1.5A20.58,20.58,0,0,0,165.87,212.62Z"/><path class="cls-2" d="M183.51,215.33H180V200.55h3.47Z"/><path class="cls-2" d="M189.7,215.33h-3.46V200.55h19.41v3h-16v3.73h15.52V210H189.7Z"/><path class="cls-2" d="M211.28,215.33h-3.46V200.55h19.41v3H211.28v3.73H226.8V210H211.28Z"/><path class="cls-2" d="M246.62,207.57v-7h3.47v7.71a6.51,6.51,0,0,1-1.27,4.16,7.46,7.46,0,0,1-3.62,2.38,20.53,20.53,0,0,1-11.14,0,7.43,7.43,0,0,1-3.61-2.38,6.45,6.45,0,0,1-1.27-4.16v-7.71h3.46v7a5,5,0,0,0,.75,2.88,4.35,4.35,0,0,0,2.3,1.63,12.72,12.72,0,0,0,3.93.52,12.86,12.86,0,0,0,4-.52,4.33,4.33,0,0,0,2.28-1.63A5,5,0,0,0,246.62,207.57Z"/><path class="cls-2" d="M256.07,215.33H252.6V200.55h14.47a10.29,10.29,0,0,1,2.46.27,5,5,0,0,1,1.86.86,3.75,3.75,0,0,1,1.19,1.54,5.86,5.86,0,0,1,.41,2.31,5.33,5.33,0,0,1-.6,2.65,3.9,3.9,0,0,1-1.74,1.62,7.08,7.08,0,0,1-2.84.65l-1.32,0,1.25.83,5,4h-4.4l-5.7-4.68h-6.6Zm0-11.81V208h10.7a3.21,3.21,0,0,0,2-.52,2.14,2.14,0,0,0,.61-1.72,2.18,2.18,0,0,0-.61-1.76,3.22,3.22,0,0,0-2-.51Z"/><path class="cls-2" d="M294.8,215.33H275.39V200.55H294.8v2.75H278.86v3.38h15.51V209H278.86v3.62H294.8Z"/><path class="cls-2" d="M304,215.33V200.55h14.58a10.27,10.27,0,0,1,2.45.27,5.09,5.09,0,0,1,1.88.86,3.81,3.81,0,0,1,1.18,1.54,5.94,5.94,0,0,1,.41,2.34,5.84,5.84,0,0,1-.73,3.11,4.21,4.21,0,0,1-2,1.72,8.34,8.34,0,0,1-3.15.54H307.5v4.4Zm14.24-11.81H307.5v4.42h10.77a3.23,3.23,0,0,0,2-.51,2.56,2.56,0,0,0,0-3.41A3.3,3.3,0,0,0,318.27,203.52Z"/><path class="cls-2" d="M338,215.61a23.38,23.38,0,0,1-6.73-.81,7.26,7.26,0,0,1-3.88-2.52,8.12,8.12,0,0,1,0-8.69,7.3,7.3,0,0,1,3.88-2.51,28.41,28.41,0,0,1,13.47,0,7.34,7.34,0,0,1,3.88,2.51,8.12,8.12,0,0,1,0,8.69,7.3,7.3,0,0,1-3.88,2.52A23.31,23.31,0,0,1,338,215.61Zm0-3a24.65,24.65,0,0,0,4-.27,7.6,7.6,0,0,0,2.57-.84,3.26,3.26,0,0,0,1.38-1.45,5.47,5.47,0,0,0,0-4.25,3.44,3.44,0,0,0-1.38-1.46,7.39,7.39,0,0,0-2.57-.83,26,26,0,0,0-4-.26,20.58,20.58,0,0,0-5,.48,4.59,4.59,0,0,0-2.62,1.5,5.06,5.06,0,0,0,0,5.4,4.59,4.59,0,0,0,2.62,1.5A20.58,20.58,0,0,0,338,212.62Z"/><path class="cls-2" d="M369.35,207.57v-7h3.47v7.71a6.45,6.45,0,0,1-1.27,4.16,7.43,7.43,0,0,1-3.61,2.38,20.53,20.53,0,0,1-11.14,0,7.46,7.46,0,0,1-3.62-2.38,6.51,6.51,0,0,1-1.27-4.16v-7.71h3.47v7a5,5,0,0,0,.75,2.88,4.32,4.32,0,0,0,2.29,1.63,15.26,15.26,0,0,0,7.9,0,4.32,4.32,0,0,0,2.29-1.63A5,5,0,0,0,369.35,207.57Z"/><path class="cls-2" d="M378.8,215.33h-3.46V200.55h14.47a10.29,10.29,0,0,1,2.46.27,5,5,0,0,1,1.86.86,3.73,3.73,0,0,1,1.18,1.54,5.68,5.68,0,0,1,.41,2.31,5.44,5.44,0,0,1-.59,2.65,3.88,3.88,0,0,1-1.75,1.62,7,7,0,0,1-2.84.65l-1.32,0,1.26.83,5,4h-4.4l-5.7-4.68H378.8Zm0-11.81V208h10.7a3.19,3.19,0,0,0,2-.52,2.15,2.15,0,0,0,.62-1.72,2.18,2.18,0,0,0-.62-1.76,3.2,3.2,0,0,0-2-.51Z"/><path class="cls-2" d="M408.31,215.33h-3.47V200.55h3.47v5.66h13.95v-5.66h3.47v14.78h-3.47V209.2H408.31Z"/><path class="cls-2" d="M439.9,215.61a23.38,23.38,0,0,1-6.73-.81,7.33,7.33,0,0,1-3.89-2.52,8.18,8.18,0,0,1,0-8.69,7.37,7.37,0,0,1,3.89-2.51,28.41,28.41,0,0,1,13.47,0,7.38,7.38,0,0,1,3.88,2.51,8.18,8.18,0,0,1,0,8.69,7.34,7.34,0,0,1-3.88,2.52A23.36,23.36,0,0,1,439.9,215.61Zm0-3a24.65,24.65,0,0,0,4-.27,7.53,7.53,0,0,0,2.56-.84,3.23,3.23,0,0,0,1.39-1.45,5.59,5.59,0,0,0,0-4.25,3.41,3.41,0,0,0-1.39-1.46,7.33,7.33,0,0,0-2.56-.83,26,26,0,0,0-4-.26,20.72,20.72,0,0,0-5,.48,4.62,4.62,0,0,0-2.62,1.5,5.06,5.06,0,0,0,0,5.4,4.62,4.62,0,0,0,2.62,1.5A20.72,20.72,0,0,0,439.9,212.62Z"/><path class="cls-2" d="M457.53,215.33h-3.46V200.55h4.22l9.62,11.92,9.6-11.92h4.16v14.78H478.2V204.67l-8.58,10.66h-3.51l-8.58-10.66Z"/><path class="cls-2" d="M487.87,215.33H484.4V200.55h4.23l9.61,11.92,9.6-11.92H512v14.78h-3.46V204.67L500,215.33h-3.51l-8.58-10.66Z"/><path class="cls-2" d="M534.14,215.33H514.73V200.55h19.41v2.75H518.2v3.38h15.51V209H518.2v3.62h15.94Z"/><path class="cls-2" d="M192.86,54.48q-19.11,3.57-38,8.11l-8.88-37q19.73-4.74,39.65-8.47a18.72,18.72,0,0,1,7.63-.17,7.65,7.65,0,0,1,4.41,2.6,10.18,10.18,0,0,1,2,4.75,9,9,0,0,1-1.18,6.34,9.89,9.89,0,0,1-5.89,4.08L192.4,34c3.43-.33,6.13.23,8.09,1.65a9.6,9.6,0,0,1,3.68,6.53,11,11,0,0,1-.38,5.75,8.12,8.12,0,0,1-3.61,4A22.2,22.2,0,0,1,192.86,54.48ZM185.23,21.3c-11.11,2.18-22.13,4.51-33.18,7,1.17,5,1.75,7.49,2.91,12.48,11.12-2.5,22.21-4.83,33.39-7a11.29,11.29,0,0,0,3.72-1.37,6.14,6.14,0,0,0,2.4-2.56,6,6,0,0,0,.39-3.78A5.73,5.73,0,0,0,192,21.64C190.51,20.86,188.24,20.74,185.23,21.3Zm4.32,16.1c-11.29,2.2-22.5,4.55-33.73,7.08,1.25,5.32,1.87,8,3.11,13.3,10.8-2.43,21.59-4.7,32.47-6.83,3.23-.61,5.45-1.53,6.66-2.81s1.61-3.13,1.18-5.58-1.49-4.1-3.15-4.83A11.36,11.36,0,0,0,189.55,37.4Z"/><path class="cls-2" d="M235.42,9.44c.09.39.14.59.24,1q-11.25,20-21.64,40.41l-6.06,1c7-14.1,14.4-28,22.24-41.71ZM257.82,36Q237.33,38,217,41.06c-.23-1.47-.34-2.21-.56-3.69q20.45-3.1,41-5.12C257.6,33.74,257.68,34.48,257.82,36Zm4.93,8.77q-15.1-17.27-30.9-33.84l.05-1c2.09-.27,3.13-.4,5.22-.65,10.91,11.36,21.56,23,31.78,35C266.44,44.41,265.21,44.51,262.75,44.74Z"/><path class="cls-2" d="M278.43,43.45l-5.1.39q-1.49-19-3-37.91,19-1.48,38-2.08a26.69,26.69,0,0,1,6.5.53,11.71,11.71,0,0,1,4.71,2.08,9,9,0,0,1,2.84,3.75,14.35,14.35,0,0,1,1,5.42,13.22,13.22,0,0,1-1.42,6.6,9.62,9.62,0,0,1-4.44,4.06A20.16,20.16,0,0,1,310,28l-5.09.16,3.74,2.5c5.7,4.33,8.51,6.52,14.05,11-2.6,0-3.91.06-6.51.12-6.72-5.32-10.14-7.94-17.1-13.11-8.66.38-13,.63-21.63,1.25C277.84,35.28,278,38,278.43,43.45ZM276,9.92l1.15,16c10.49-.77,21-1.32,31.56-1.62,3.37-.11,5.76-.79,7.19-2.09s2.13-3.33,2.07-6.12-.83-5-2.34-6.14-4-1.75-7.42-1.65C297.47,8.67,286.76,9.22,276,9.92Z"/><path class="cls-2" d="M370.52,42.42q-19.32-.95-38.68-.92,0-19,0-38,20.16,0,40.3,1A18.73,18.73,0,0,1,379.53,6a7.64,7.64,0,0,1,3.67,3.55,10.27,10.27,0,0,1,.82,5.08,9.09,9.09,0,0,1-2.61,5.9,9.87,9.87,0,0,1-6.66,2.6l0-.72c3.4.48,5.89,1.65,7.47,3.48a9.62,9.62,0,0,1,2.05,7.2,10.91,10.91,0,0,1-1.7,5.5,8.06,8.06,0,0,1-4.43,3.11A22,22,0,0,1,370.52,42.42Zm.26-34c-11.25-.45-22.45-.74-33.71-.88,0,5.13,0,7.69-.06,12.82,11.32.14,22.6.45,33.92.91a11,11,0,0,0,3.92-.47,6.13,6.13,0,0,0,2.92-1.94A6,6,0,0,0,379,15.24a5.75,5.75,0,0,0-1.73-5C376,9.17,373.83,8.53,370.78,8.38ZM371.26,25c-11.44-.47-22.83-.78-34.27-.93,0,5.47-.05,8.2-.07,13.66,11,.14,22,.43,33,.88,3.27.16,5.64-.23,7.11-1.19s2.28-2.67,2.43-5.16S379,28,377.51,26.88A11.2,11.2,0,0,0,371.26,25Z"/><path class="cls-2" d="M396.19,44.12l-5.1-.41q1.46-19,2.9-37.91c2.14.16,3.21.24,5.35.42Z"/><path class="cls-2" d="M453.53,51.07c-16.16-2.62-32.43-4.62-48.72-6.19Q406.6,25.95,408.39,7c17.12,1.74,34.13,3.91,51.14,6.5l-.65,4.08q-22.74-3.47-45.56-6c-.51,5-.77,7.56-1.28,12.6,14.64,1.59,29.19,3.48,43.76,5.67-.23,1.41-.34,2.12-.56,3.53-14.5-2.19-29-4.07-43.56-5.65-.54,5.39-.82,8.08-1.36,13.48,14.68,1.6,29.26,3.5,43.86,5.72Z"/><path class="cls-2" d="M466.64,53.28l-5.05-.88q3.2-18.74,6.4-37.48,18.83,3.21,37.48,7.33a26.38,26.38,0,0,1,6.21,2.11,12,12,0,0,1,4.1,3.18,9.07,9.07,0,0,1,1.85,4.33,14.5,14.5,0,0,1-.35,5.51,13.06,13.06,0,0,1-3,6,9.63,9.63,0,0,1-5.33,2.84,20.09,20.09,0,0,1-7.76-.25l-5-1.09,3,3.34c4.5,5.6,6.7,8.42,11,14.08l-6.38-1.49c-5.25-6.81-8-10.2-13.45-16.92-8.53-1.76-12.81-2.58-21.37-4.11C468.07,45.21,467.59,47.9,466.64,53.28Zm5.88-33.1-2.8,15.76c10.41,1.83,20.82,3.89,31.14,6.19,3.31.73,5.81.65,7.53-.25s2.89-2.71,3.52-5.42.4-5-.78-6.54-3.46-2.68-6.83-3.42C493.72,24.25,483.16,22.15,472.52,20.18Z"/><path class="cls-1" d="M4.57,61.64C3,59.41,0,57.14.07,54.94c.06-2.52,2.76-5,4.72-8.12C-1.12,30.87,2.13,17,14.84,6.68,25.2-1.71,41.67-2.26,53.12,5.41c13.35,8.93,17,22.32,12,40.94,2.28,3.39,5.13,5.81,5.29,8.4.13,2.25-2.78,4.69-4.34,7l-1.4-.66V192c0,2.63-.25,4.77,3.25,6.19,4.27,1.73,3.86,7.91-.12,10.1-2.87,1.58-5.56,3.45-8.44,5a71.69,71.69,0,0,1-10.26,4.95c-3.63,1.26-7.19,1.41-9.18,6-1.71,3.94-8.32,3.21-10.17-.95-1.28-2.88-3.29-3.29-5.79-4.31-5.75-2.35-11.14-5.56-16.66-8.44a13.23,13.23,0,0,1-3.37-2C2.4,207,.14,205.25,0,203.46s1.92-3.82,3.05-5.73c.86-1.46,2.55-2.9,2.55-4.35q.21-65.94.12-131.88Zm30.1-12.93c7.48,0,15-.11,22.44.06,2.89.07,4.47-.85,5.66-3.57A30.79,30.79,0,0,0,53.49,8.83C42.46.14,27,.31,15.69,9.24,5.14,17.57,1.34,33,7.17,45.18a7.08,7.08,0,0,0,5.07,3.37C19.7,48.93,27.19,48.71,34.67,48.71Zm26.92,15.4C44.12,71.77,27.56,79,11,86.35c-.9.4-2.07,1.54-2.09,2.37-.16,6.86-.09,13.73-.09,21.54,17.74-7.82,34.44-15.13,51.07-22.6.86-.38,1.56-2.06,1.59-3.16C61.67,78,61.59,71.54,61.59,64.11Zm0,53.16c-17.47,7.63-34.28,15-51,22.39a3.6,3.6,0,0,0-1.64,2.69c-.15,5.75-.07,11.51-.07,17.09.62.22.82.37.93.32,16.58-7.13,33.17-14.24,49.7-21.48a4,4,0,0,0,2-2.91C61.69,129.61,61.59,123.84,61.59,117.27ZM8.29,193.33l1.21,1.34c7,0,14-.56,20.9.13,10.29,1,19.28-2.3,28.06-6.82,1.27-.65,2.91-2.14,3-3.32.32-5.39.14-10.82.14-16.34a8,8,0,0,0-2,.18c-16.14,7-32.29,14-48.36,21.2C9.92,190.26,9.24,192.09,8.29,193.33ZM35.17,51.39c-9.14,0-18.28-.17-27.41.13-1.79.06-4.79,1.69-5,3-.6,3.37,2.38,3.75,5,3.76,18.45,0,36.89.11,55.33-.16,1.82,0,3.6-2.35,5.4-3.6-1.8-1-3.57-2.91-5.4-3C53.79,51.22,44.48,51.39,35.17,51.39Zm0,155c9.3,0,18.61.17,27.91-.14,1.82-.06,3.58-2,5.37-3-1.82-1.24-3.62-3.53-5.45-3.55-18.44-.27-36.88-.17-55.32-.16-2.64,0-5.61.39-5,3.77.25,1.3,3.26,2.9,5.06,2.95C16.93,206.58,26.07,206.42,35.21,206.42ZM9.6,208.7c11.7,12.66,42.75,11,50.32,0Zm30.46,11.14H31.57L31,221.35c1.58.88,3.16,2.46,4.72,2.43C36.92,223.76,38.09,221.73,40.06,219.84Z"/><path class="cls-2" d="M34.67,48.71c-7.48,0-15,.22-22.43-.16a7.08,7.08,0,0,1-5.07-3.37C1.34,33,5.14,17.57,15.69,9.24,27,.31,42.46.14,53.49,8.83A30.79,30.79,0,0,1,62.77,45.2c-1.19,2.72-2.77,3.64-5.66,3.57C49.63,48.6,42.15,48.71,34.67,48.71ZM31.58,7.14C15.34,11.88,5.9,30.33,12.52,42l11.89-7.21C21.32,24.78,23.07,15.17,31.58,7.14Z"/><path class="cls-2" d="M61.59,64.11c0,7.43.08,13.91-.07,20.39,0,1.1-.73,2.78-1.59,3.16C43.3,95.13,26.6,102.44,8.86,110.26c0-7.81-.07-14.68.09-21.54,0-.83,1.19-2,2.09-2.37C27.56,79,44.12,71.77,61.59,64.11Z"/><path class="cls-2" d="M61.59,117.27c0,6.57.1,12.34-.1,18.1a4,4,0,0,1-2,2.91c-16.53,7.24-33.12,14.35-49.7,21.48-.11.05-.31-.1-.93-.32,0-5.58-.08-11.34.07-17.09a3.6,3.6,0,0,1,1.64-2.69C27.31,132.22,44.12,124.9,61.59,117.27Z"/><path class="cls-2" d="M8.29,193.33c1-1.24,1.63-3.07,2.88-3.63,16.07-7.18,32.22-14.18,48.36-21.2a8,8,0,0,1,2-.18c0,5.52.18,11-.14,16.34-.07,1.18-1.71,2.67-3,3.32-8.78,4.52-17.77,7.85-28.06,6.82-6.9-.69-13.93-.13-20.9-.13Z"/><path class="cls-2" d="M35.17,51.39c9.31,0,18.62-.17,27.91.14,1.83.06,3.6,1.93,5.4,3-1.8,1.25-3.58,3.57-5.4,3.6-18.44.27-36.88.17-55.33.16-2.63,0-5.61-.39-5-3.76.23-1.29,3.23-2.92,5-3C16.89,51.22,26,51.39,35.17,51.39Z"/><path class="cls-2" d="M35.21,206.42c-9.14,0-18.28.16-27.41-.14-1.8-.05-4.81-1.65-5.06-2.95-.63-3.38,2.34-3.77,5-3.77,18.44,0,36.88-.11,55.32.16,1.83,0,3.63,2.31,5.45,3.55-1.79,1-3.55,2.95-5.37,3C53.82,206.59,44.51,206.42,35.21,206.42Z"/><path class="cls-2" d="M9.6,208.7H59.92C52.35,219.7,21.3,221.36,9.6,208.7Z"/><path class="cls-2" d="M40.06,219.84c-2,1.89-3.14,3.92-4.34,3.94-1.56,0-3.14-1.55-4.72-2.43l.57-1.51Z"/><path class="cls-1" d="M31.58,7.14c-8.51,8-10.26,17.64-7.17,27.6L12.52,42C5.9,30.33,15.34,11.88,31.58,7.14Z"/><path class="cls-1" d="M599.64,61.64c-1.62-2.23-4.55-4.5-4.5-6.7.06-2.52,2.76-5,4.72-8.12C594,30.87,597.19,17,609.9,6.68c10.37-8.39,26.84-8.94,38.29-1.27,13.34,8.93,17,22.32,12,40.94,2.28,3.39,5.13,5.81,5.29,8.4.13,2.25-2.78,4.69-4.35,7l-1.39-.66V72.58q0,59.7,0,119.4c0,2.63-.25,4.77,3.25,6.19,4.28,1.73,3.87,7.91-.12,10.1-2.86,1.58-5.55,3.45-8.43,5a72.21,72.21,0,0,1-10.26,4.95c-3.63,1.26-7.19,1.41-9.18,6-1.71,3.94-8.33,3.21-10.17-.95-1.28-2.88-3.29-3.29-5.8-4.31-5.74-2.35-11.13-5.56-16.66-8.44a13.41,13.41,0,0,1-3.37-2c-1.54-1.54-3.81-3.27-3.94-5.06s1.93-3.82,3-5.73c.87-1.46,2.56-2.9,2.56-4.35q.21-65.94.12-131.88Zm30.1-12.93c7.48,0,15-.11,22.44.06,2.89.07,4.46-.85,5.66-3.57a30.79,30.79,0,0,0-9.28-36.37c-11-8.69-26.48-8.52-37.8.41-10.55,8.33-14.35,23.76-8.52,35.94a7.06,7.06,0,0,0,5.07,3.37C614.77,48.93,622.26,48.71,629.74,48.71Zm26.92,15.4c-17.47,7.66-34,14.9-50.55,22.24-.9.4-2.07,1.54-2.09,2.37-.17,6.86-.09,13.73-.09,21.54,17.74-7.82,34.44-15.13,51.07-22.6.85-.38,1.56-2.06,1.59-3.16C656.74,78,656.66,71.54,656.66,64.11Zm0,53.16c-17.46,7.63-34.27,15-51,22.39a3.59,3.59,0,0,0-1.63,2.69c-.15,5.75-.08,11.51-.08,17.09.63.22.83.37.94.32,16.58-7.13,33.17-14.24,49.7-21.48a4,4,0,0,0,2-2.91C656.75,129.61,656.65,123.84,656.65,117.27Zm-53.29,76.06,1.21,1.34c7,0,14-.56,20.9.13,10.29,1,19.28-2.3,28.06-6.82,1.27-.65,2.91-2.14,3-3.32.32-5.39.14-10.82.14-16.34a8,8,0,0,0-2,.18c-16.14,7-32.29,14-48.36,21.2C605,190.26,604.31,192.09,603.36,193.33ZM630.24,51.39c-9.14,0-18.28-.17-27.41.13-1.79.06-4.79,1.69-5,3-.6,3.37,2.38,3.75,5,3.76,18.44,0,36.89.11,55.33-.16,1.82,0,3.6-2.35,5.4-3.6-1.8-1-3.57-2.91-5.4-3C648.86,51.22,639.54,51.39,630.24,51.39Zm0,155c9.3,0,18.61.17,27.9-.14,1.83-.06,3.59-2,5.38-3-1.82-1.24-3.62-3.53-5.45-3.55-18.44-.27-36.88-.17-55.32-.16-2.64,0-5.62.39-5,3.77.24,1.3,3.26,2.9,5.06,2.95C612,206.58,621.14,206.42,630.28,206.42Zm-25.62,2.28c11.71,12.66,42.75,11,50.33,0Zm30.47,11.14h-8.5l-.56,1.51c1.57.88,3.16,2.46,4.72,2.43C632,223.76,633.16,221.73,635.13,219.84Z"/><path class="cls-2" d="M629.74,48.71c-7.48,0-15,.22-22.43-.16a7.06,7.06,0,0,1-5.07-3.37c-5.83-12.18-2-27.61,8.52-35.94,11.32-8.93,26.77-9.1,37.8-.41a30.79,30.79,0,0,1,9.28,36.37c-1.2,2.72-2.77,3.64-5.66,3.57C644.7,48.6,637.22,48.71,629.74,48.71Zm-3.1-41.57C610.41,11.88,601,30.33,607.59,42l11.88-7.21C616.39,24.78,618.14,15.17,626.64,7.14Z"/><path class="cls-2" d="M656.66,64.11c0,7.43.08,13.91-.07,20.39,0,1.1-.74,2.78-1.59,3.16-16.63,7.47-33.33,14.78-51.07,22.6,0-7.81-.08-14.68.09-21.54,0-.83,1.19-2,2.09-2.37C622.63,79,639.19,71.77,656.66,64.11Z"/><path class="cls-2" d="M656.65,117.27c0,6.57.1,12.34-.09,18.1a4,4,0,0,1-2,2.91c-16.53,7.24-33.12,14.35-49.7,21.48-.11.05-.31-.1-.94-.32,0-5.58-.07-11.34.08-17.09a3.59,3.59,0,0,1,1.63-2.69C622.38,132.22,639.19,124.9,656.65,117.27Z"/><path class="cls-2" d="M603.36,193.33c.95-1.24,1.63-3.07,2.88-3.63,16.07-7.18,32.22-14.18,48.36-21.2a8,8,0,0,1,2-.18c0,5.52.18,11-.14,16.34-.07,1.18-1.71,2.67-3,3.32-8.78,4.52-17.77,7.85-28.06,6.82-6.91-.69-13.93-.13-20.9-.13Z"/><path class="cls-2" d="M630.24,51.39c9.3,0,18.62-.17,27.91.14,1.83.06,3.6,1.93,5.4,3-1.8,1.25-3.58,3.57-5.4,3.6-18.44.27-36.89.17-55.33.16-2.63,0-5.61-.39-5-3.76.23-1.29,3.23-2.92,5-3C612,51.22,621.1,51.39,630.24,51.39Z"/><path class="cls-2" d="M630.28,206.42c-9.14,0-18.28.16-27.41-.14-1.8-.05-4.82-1.65-5.06-2.95-.64-3.38,2.34-3.77,5-3.77,18.44,0,36.88-.11,55.32.16,1.83,0,3.63,2.31,5.45,3.55-1.79,1-3.55,2.95-5.38,3C648.89,206.59,639.58,206.42,630.28,206.42Z"/><path class="cls-2" d="M604.66,208.7H655C647.41,219.7,616.37,221.36,604.66,208.7Z"/><path class="cls-2" d="M635.13,219.84c-2,1.89-3.14,3.92-4.34,3.94-1.56,0-3.15-1.55-4.72-2.43l.56-1.51Z"/><path class="cls-1" d="M626.64,7.14c-8.5,8-10.25,17.64-7.17,27.6L607.59,42C601,30.33,610.41,11.88,626.64,7.14Z"/></g></g></svg>