<svg xmlns="http://www.w3.org/2000/svg" viewBox="0 0 234.59 129.57"><defs><style>.cls-1{font-size:40.58px;fill:#273f4f;font-family:BebasNeue-Regular, Bebas Neue;letter-spacing:0.05em;}.cls-2,.cls-5{font-size:50.67px;}.cls-2{letter-spacing:0.05em;}.cls-3{letter-spacing:0.05em;}.cls-4{letter-spacing:0.05em;}.cls-5{letter-spacing:0.05em;}.cls-6{letter-spacing:0.05em;}.cls-7{fill:#f47646;}</style></defs><g id="Layer_2" data-name="Layer 2"><g id="Layer_1-2" data-name="Layer 1"><text class="cls-1" transform="translate(60.93 34.49)">BARBER<tspan class="cls-2"><tspan x="-0.3" y="43.96">S</tspan><tspan class="cls-3" x="20.92" y="43.96">A</tspan><tspan class="cls-4" x="43.67" y="43.96">CRÉ</tspan></tspan><tspan class="cls-5"><tspan x="-1.22" y="84.94">C</tspan><tspan class="cls-6" x="20.82" y="84.94">OEUR</tspan></tspan></text><path class="cls-7" d="M51.5,117l-2.23,0c-7.85-.1-14.4-.34-19-.43l-7.2-.23,7.2-.23c4.58-.1,11.13-.33,19-.44l2.23,0V75.5l-1.79,1.79a2.22,2.22,0,0,1-3.13,0l-6.42-6.42A4.4,4.4,0,0,0,37,69.58H31.21v6.77A3.52,3.52,0,0,1,28,79.88c-2.09.12-3.25-1.26-3.75-3.49a52.8,52.8,0,0,1,0-25.4c.5-2.23,1.66-3.61,3.75-3.49A3.5,3.5,0,0,1,31.21,51V57.8H37a4.41,4.41,0,0,0,3.12-1.3l6.42-6.42a2.22,2.22,0,0,1,3.13,0l1.79,1.8V11.79l-2.23,0c-7.85-.1-14.4-.34-19-.44l-7.2-.23,7.2-.23c4.58-.09,11.13-.33,19-.43l2.23,0V6.06H19.44A4.74,4.74,0,0,0,14.7,10.8v9.52a2.91,2.91,0,0,0,2.91,2.91,3.8,3.8,0,1,1,0,7.6H4.74A4.74,4.74,0,0,0,0,35.56V91.81a4.74,4.74,0,0,0,4.74,4.73H17.61a3.8,3.8,0,1,1,0,7.6,2.92,2.92,0,0,0-2.91,2.91v9.52a4.74,4.74,0,0,0,4.74,4.74H51.5Z"/><path class="cls-7" d="M229.85,30.83H217a3.8,3.8,0,1,1,0-7.6,2.91,2.91,0,0,0,2.91-2.91V10.8a4.74,4.74,0,0,0-4.74-4.74H176v4.23l9.31.14c7.85.11,14.4.34,19,.44l7.2.22-7.2.23c-4.58.1-11.13.33-19,.44L176,11.9V57.74a4.4,4.4,0,0,0,2.45-1.24l6.42-6.42a2.22,2.22,0,0,1,3.13,0l6.42,6.42a4.41,4.41,0,0,0,3.12,1.3h5.83V51a3.5,3.5,0,0,1,3.25-3.52c2.09-.12,3.25,1.26,3.74,3.49a52.48,52.48,0,0,1,0,25.4c-.49,2.23-1.65,3.61-3.74,3.49a3.52,3.52,0,0,1-3.25-3.53V69.58h-5.83a4.4,4.4,0,0,0-3.12,1.29L188,77.29a2.22,2.22,0,0,1-3.13,0l-6.42-6.42A4.4,4.4,0,0,0,176,69.63v45.84c3.26,0,6.38.11,9.31.14,7.85.11,14.4.34,19,.44l7.2.23-7.2.23c-4.58.09-11.13.32-19,.43l-9.31.15v4.22h39.14a4.74,4.74,0,0,0,4.74-4.74v-9.52a2.92,2.92,0,0,0-2.91-2.91,3.8,3.8,0,1,1,0-7.6h12.87a4.74,4.74,0,0,0,4.74-4.73V35.56A4.74,4.74,0,0,0,229.85,30.83Z"/></g></g></svg>